<?xml version="1.0" standalone="no"?>
<!DOCTYPE svg PUBLIC "-//W3C//DTD SVG 20010904//EN"
 "http://www.w3.org/TR/2001/REC-SVG-20010904/DTD/svg10.dtd">
<svg version="1.0" xmlns="http://www.w3.org/2000/svg"
 width="800.000000pt" height="800.000000pt" viewBox="0 0 800.000000 800.000000"
 preserveAspectRatio="xMidYMid meet">

<g transform="translate(0.000000,800.000000) scale(0.100000,-0.100000)"
fill="#000000" stroke="none">
<path d="M0 4000 l0 -4000 4000 0 4000 0 0 4000 0 4000 -4000 0 -4000 0 0
-4000z m6753 2325 c97 -25 169 -84 219 -178 20 -36 23 -57 23 -147 0 -90 -3
-111 -23 -147 -30 -56 -78 -110 -124 -139 -90 -57 83 -54 -2848 -54 -2931 0
-2758 -3 -2848 54 -46 29 -94 83 -124 139 -20 36 -23 57 -23 147 0 90 3 111
23 147 49 92 122 153 215 178 81 21 5426 22 5510 0z m0 -2000 c97 -25 169 -84
219 -178 20 -36 23 -57 23 -147 0 -90 -3 -111 -23 -147 -30 -56 -78 -110 -124
-139 -90 -57 83 -54 -2848 -54 -2931 0 -2758 -3 -2848 54 -46 29 -94 83 -124
139 -20 36 -23 57 -23 147 0 90 3 111 23 147 49 92 122 153 215 178 81 21
5426 22 5510 0z m0 -2000 c97 -25 169 -84 219 -178 20 -36 23 -57 23 -147 0
-90 -3 -111 -23 -147 -30 -56 -78 -110 -124 -139 -90 -57 83 -54 -2848 -54
-2931 0 -2758 -3 -2848 54 -46 29 -94 83 -124 139 -20 36 -23 57 -23 147 0 90
3 111 23 147 49 92 122 153 215 178 81 21 5426 22 5510 0z"/>
</g>
</svg>
